<?xml version="1.0" encoding="iso-8859-1"?>
<!-- Uploaded to: SVG Repo, www.svgrepo.com, Generator: SVG Repo Mixer Tools -->
<svg fill="#000000" height="800px" width="800px" version="1.1" id="Layer_1" xmlns="http://www.w3.org/2000/svg" xmlns:xlink="http://www.w3.org/1999/xlink" 
	 viewBox="0 0 512 512" xml:space="preserve">
<g>
	<g>
		<g>
			<path d="M103.911,300.885c-19.033,0-34.517,15.484-34.517,34.517s15.484,34.517,34.517,34.517s34.517-15.484,34.517-34.517
				S122.943,300.885,103.911,300.885z M103.911,346.908c-6.344,0-11.506-5.161-11.506-11.506c0-6.344,5.161-11.506,11.506-11.506
				c6.344,0,11.506,5.161,11.506,11.506C115.416,341.746,110.254,346.908,103.911,346.908z"/>
			<path d="M356.843,300.885c-19.033,0-34.517,15.484-34.517,34.517s15.484,34.517,34.517,34.517
				c19.033,0,34.517-15.484,34.517-34.517S375.876,300.885,356.843,300.885z M356.843,346.908c-6.344,0-11.506-5.161-11.506-11.506
				c0-6.344,5.161-11.506,11.506-11.506c6.344,0,11.506,5.161,11.506,11.506C368.349,341.746,363.186,346.908,356.843,346.908z"/>
			<path d="M202.683,228.217c2.945,0,5.889-1.123,8.136-3.37l0.575-0.575c4.493-4.493,4.493-11.778,0-16.272
				c-4.494-4.493-11.777-4.493-16.272,0l-0.575,0.575c-4.493,4.493-4.493,11.778,0,16.272
				C196.794,227.093,199.739,228.217,202.683,228.217z"/>
			<path d="M462.696,44.282h-6.566v-5.861c0-18.973-15.436-34.409-34.409-34.409h-34.625c-6.353,0-11.506,5.151-11.506,11.506v5.753
				h-30.038c-6.353,0-11.506,5.151-11.506,11.506s5.152,11.506,11.506,11.506h30.038v23.011h-30.038
				c-6.353,0-11.506,5.151-11.506,11.506s5.152,11.506,11.506,11.506h30.038v5.753c0,6.355,5.152,11.506,11.506,11.506h34.625
				c18.973,0,34.409-15.436,34.409-34.409v-5.861h6.566c14.498,0,26.294,11.796,26.294,26.294v213.065
				c0,14.498-11.796,26.294-26.294,26.294h-19.729v-20.554c0-1.558-0.316-3.1-0.931-4.532c-8.187-19.105-23.392-33.7-41.851-41.329
				c-8.409-26.037-19.512-52.394-33.034-78.379c-0.208-0.398-0.438-0.784-0.69-1.155c-11.661-17.162-34.89-35.684-52.086-35.684
				H145.85c-17.192,0-40.422,18.522-52.085,35.682c-0.253,0.372-0.483,0.758-0.692,1.156
				c-13.521,25.984-24.624,52.343-33.034,78.379c-18.458,7.629-33.663,22.224-41.851,41.329c-0.613,1.432-0.931,2.973-0.931,4.532
				v74.786h-5.753C5.152,387.178,0,392.329,0,398.684v46.023c0,6.355,5.152,11.506,11.506,11.506h11.506v25.129
				c0,14.693,11.954,26.646,26.646,26.646h44.506c14.693,0,26.646-11.953,26.646-26.646v-25.129h218.607v25.129
				c0,14.693,11.954,26.646,26.646,26.646h44.506c14.693,0,26.646-11.953,26.646-26.646v-25.129h11.506
				c6.353,0,11.506-5.151,11.506-11.506v-46.023c0-6.355-5.152-11.506-11.506-11.506h-5.753v-31.222h19.729
				c27.187,0,49.305-22.118,49.305-49.305V93.587C512.001,66.401,489.883,44.282,462.696,44.282z M433.119,73.156
				c0,6.284-5.113,11.397-11.397,11.397h-23.119V27.025h23.119c6.284,0,11.397,5.113,11.397,11.397V73.156z M113.166,199.393
				c10.647-15.326,27.372-25.07,32.684-25.07h168.528c5.313,0,22.04,9.744,32.684,25.07c10.54,20.321,19.53,40.85,26.815,61.223
				h-92.295l32.892-32.892c4.493-4.493,4.493-11.778,0-16.272c-4.494-4.493-11.777-4.493-16.272,0l-49.163,49.163h-73.988l5.71-5.71
				c4.493-4.493,4.493-11.778,0-16.272c-4.494-4.493-11.777-4.493-16.272,0l-21.982,21.981H86.352
				C93.637,240.241,102.626,219.713,113.166,199.393z M40.271,314.869c9.1-19.052,28.313-31.242,49.565-31.242h280.555
				c21.252,0,40.465,12.19,49.565,31.242v72.308H40.271V314.869z M97.799,481.34c0,2.004-1.63,3.635-3.635,3.635H49.658
				c-2.004,0-3.635-1.63-3.635-3.635v-25.129h51.775V481.34z M172.585,433.2H23.012v-23.011h149.573V433.2z M264.63,433.2h-69.034
				v-23.011h69.034V433.2z M414.203,481.34c0,2.004-1.63,3.635-3.635,3.635h-44.506c-2.004,0-3.635-1.63-3.635-3.635v-25.129h51.775
				V481.34z M437.215,433.2H287.642v-23.011h149.573V433.2z"/>
		</g>
	</g>
</g>
</svg>